<?xml version="1.0" encoding="iso-8859-1"?>
<!-- Uploaded to: SVG Repo, www.svgrepo.com, Generator: SVG Repo Mixer Tools -->
<svg height="800px" width="800px" version="1.1" id="Layer_1" xmlns="http://www.w3.org/2000/svg" xmlns:xlink="http://www.w3.org/1999/xlink" 
	 viewBox="0 0 512 512" xml:space="preserve">
<polygon style="fill:#F47D20;" points="318.727,257.503 193.272,257.503 193.272,184.775 288.132,99.08 "/>
<path style="fill:#F5BA3D;" d="M290.739,128.752v362.77c0,11.309,9.168,20.478,20.478,20.478h84.499
	c11.309,0,20.478-9.168,20.478-20.478v-362.77C416.193,57.644,372.556,0,318.727,0H193.273c33.989,21.94,54.11,23.587,71.272,46.076
	C282.082,69.057,282.006,101.193,290.739,128.752z"/>
<path style="fill:#EF9325;" d="M318.727,0h-27.196c53.829,0,97.466,57.644,97.466,128.752v362.77
	c0,11.309-9.168,20.478-20.478,20.478h27.196c11.309,0,20.478-9.168,20.478-20.478v-362.77C416.193,57.644,372.556,0,318.727,0z"/>
<path style="fill:#F5A51F;" d="M193.272,0c-53.829,0-97.466,57.644-97.466,128.752s43.637,128.752,97.466,128.752
	s97.466-57.644,97.466-128.752S247.102,0,193.272,0z M193.272,173.65c-18.772,0-33.989-20.102-33.989-44.9s15.217-44.9,33.989-44.9
	s33.989,20.102,33.989,44.9S212.043,173.65,193.272,173.65z"/>
<g>
	<circle style="fill:#58595B;" cx="334.29" cy="57.917" r="10.198"/>
	<circle style="fill:#58595B;" cx="347.752" cy="99.08" r="10.198"/>
	<circle style="fill:#58595B;" cx="350.335" cy="181.409" r="10.198"/>
	<circle style="fill:#58595B;" cx="350.335" cy="222.57" r="10.198"/>
	<circle style="fill:#58595B;" cx="350.335" cy="263.731" r="10.198"/>
	<circle style="fill:#58595B;" cx="350.335" cy="346.053" r="10.198"/>
	<circle style="fill:#58595B;" cx="350.335" cy="387.214" r="10.198"/>
	<circle style="fill:#58595B;" cx="350.335" cy="428.374" r="10.198"/>
	<path style="fill:#58595B;" d="M385.232,377.015c-5.632,0-10.198,4.565-10.198,10.198s4.566,10.198,10.198,10.198h30.961l0,0
		v-20.397l0,0H385.232z"/>
	<path style="fill:#58595B;" d="M328.348,294.691c-5.632,0-10.198,4.565-10.198,10.198c0,5.634,4.566,10.198,10.198,10.198h87.845
		l0,0v-20.397l0,0H328.348z"/>
	<path style="fill:#58595B;" d="M385.232,335.854c-5.632,0-10.198,4.565-10.198,10.198s4.566,10.198,10.198,10.198h30.961l0,0
		v-20.397l0,0L385.232,335.854L385.232,335.854z"/>
	<path style="fill:#58595B;" d="M385.232,418.177c-5.632,0-10.198,4.565-10.198,10.198s4.566,10.198,10.198,10.198h30.961l0,0
		v-20.397l0,0H385.232z"/>
	<path style="fill:#58595B;" d="M416.193,479.736v-20.397l0,0h-87.845c-5.632,0-10.198,4.565-10.198,10.198
		s4.566,10.198,10.198,10.198H416.193L416.193,479.736z"/>
	<path style="fill:#58595B;" d="M385.232,171.206c-5.632,0-10.198,4.565-10.198,10.198c0,5.634,4.566,10.198,10.198,10.198h30.961
		l0,0v-20.397l0,0H385.232L385.232,171.206z"/>
	<path style="fill:#58595B;" d="M328.348,150.44h87.845l0,0v-20.397l0,0h-87.845c-5.632,0-10.198,4.565-10.198,10.198
		C318.149,145.875,322.714,150.44,328.348,150.44z"/>
	<path style="fill:#58595B;" d="M369.198,47.719c-5.632,0-10.198,4.565-10.198,10.198s4.566,10.198,10.198,10.198h30.961
		c1.498,0,2.913-0.34,4.192-0.922c-2.849-6.9-6.165-13.413-9.887-19.475H369.198z"/>
	<path style="fill:#58595B;" d="M385.232,253.53c-5.632,0-10.198,4.565-10.198,10.198s4.566,10.198,10.198,10.198h30.961l0,0V253.53
		l0,0H385.232z"/>
	<path style="fill:#58595B;" d="M385.232,212.368c-5.632,0-10.198,4.565-10.198,10.198c0,5.634,4.566,10.198,10.198,10.198h30.961
		l0,0v-20.397l0,0H385.232z"/>
	<path style="fill:#58595B;" d="M382.653,88.883c-5.632,0-10.198,4.565-10.198,10.198s4.566,10.198,10.198,10.198h30.961
		c0.496,0,0.98-0.046,1.456-0.116c-0.804-6.961-2.037-13.734-3.65-20.281H382.653z"/>
</g>
</svg>