<?xml version="1.0" encoding="iso-8859-1"?>
<!-- Uploaded to: SVG Repo, www.svgrepo.com, Generator: SVG Repo Mixer Tools -->
<svg height="800px" width="800px" version="1.1" id="Layer_1" xmlns="http://www.w3.org/2000/svg" xmlns:xlink="http://www.w3.org/1999/xlink" 
	 viewBox="0 0 463.99 463.99" xml:space="preserve">
<g transform="translate(0 -1020.36)">
	<g shape-rendering="auto" image-rendering="auto" color-rendering="auto" color-interpolation="sRGB">
		<g>
			<path style="fill:#464C63;" d="M79.748,1120.357c-2.035,0.064-3.968,0.902-5.406,2.344l-72,72
				c-3.123,3.125-3.122,8.191,0.004,11.314c1.499,1.498,3.532,2.342,5.652,2.342h44.531l115.686,123.375
				c-1.152,6.201-4.093,20.846-4.093,20.846c-0.707,3.893,1.538,7.719,5.282,9c0,0,45.059,15.686,70.968,19.125
				c36.739,4.869,74.48,4.869,111.219,0c25.91-3.438,71-19.125,71-19.125c3.816-1.316,6.054-5.27,5.219-9.219
				c0,0-20.115-95.537-29.75-140.844c-2.725-12.811-12.04-22.029-22.406-28.75c-10.365-6.721-22.246-11.305-32.501-14.719
				c-14.912-4.965-31.061-7.617-47.218-7.688c-16.157,0-32.309,2.428-47.251,7.719c-20.363,7.207-43.603,20.164-51.594,43.219
				c-3.731,10.766-7.458,24.156-11.03,38.219l-98.062-77v-44.156c0.002-4.418-3.579-8.002-7.998-8.004
				c-0.084,0-0.168,0.002-0.252,0.004L79.748,1120.357z M295.903,1176.451L295.903,1176.451c14.466,0.004,28.962,2.355,42.155,6.748
				c9.646,3.211,20.469,7.518,28.875,12.969c8.408,5.451,13.954,11.678,15.438,18.656c9.123,42.893,26.269,124.332,28.187,133.438
				c-7.693,2.549-41.536,14.002-61.094,16.596c-35.312,4.68-71.686,4.68-107,0c-19.526-2.598-53.134-13.979-60.938-16.563
				c1.626-8.896,16.317-90.314,30.688-131.781c5.294-15.273,23.746-26.951,41.813-33.344c12.966-4.59,27.378-6.777,41.843-6.719
				H295.903z M80.621,1187.045l101.376,79.623c-4.406,18.74-6.957,30.455-10,45.721L67.122,1200.543L80.621,1187.045z"/>
			<path style="fill:#FFB900;" d="M71.991,1147.675v25.377l-19.344,19.313H27.303L71.991,1147.675z"/>
			<g>
				<path style="fill:#464C63;" d="M264.65,1120.357c-2.015-0.002-3.957,0.758-5.437,2.127l-8.658,7.969
					c-1.635,1.516-2.563,3.645-2.562,5.873v31.938c-0.064,4.418,3.466,8.051,7.884,8.115s8.052-3.465,8.116-7.883
					c0.001-0.078,0.001-0.154,0-0.232v-28.406l3.781-3.5h56.44l3.781,3.5v28.406c-0.064,4.418,3.466,8.051,7.884,8.115
					s8.052-3.465,8.116-7.883c0.001-0.078,0.001-0.154,0-0.232v-31.938c-0.006-2.234-0.947-4.365-2.594-5.875l-8.626-7.969
					c-1.48-1.369-3.421-2.129-5.437-2.127L264.65,1120.357z"/>
				<path style="fill:#464C63;" d="M407.372,1174.951c-7.142,2.178-13.531,6.854-19,11s-9.656,7.906-9.656,7.906
					c-3.288,2.959-3.554,8.023-0.594,11.313c2.96,3.287,8.025,3.553,11.312,0.594c0,0,3.706-3.355,8.595-7.063
					c4.888-3.707,11.317-7.619,14-8.438c6.966-2.127,14.869-2.514,20.219-0.287c5.448,2.271,10.926,7.592,12.624,12.469
					c7.342,21.084-0.384,47.766-8.594,72.25c-2.115,6.314-8.31,17.076-13.906,25.625c-5.597,8.551-10.533,15.156-10.533,15.156
					c-2.649,3.537-1.929,8.555,1.609,11.203c3.538,2.648,8.554,1.928,11.203-1.609c0,0,5.205-7,11.094-16
					c5.891-9.002,12.525-19.752,15.72-29.281c8.288-24.73,18.229-54.689,8.499-82.625c-3.63-10.424-12.136-18-21.563-21.938
					c-10.435-4.355-21.645-3.146-31.032-0.287V1174.951z"/>
				<path style="fill:#464C63;" d="M129.116,1208.357v16h70.877v-16H129.116z"/>
			</g>
		</g>
		<path style="fill:#464C63;" d="M295.959,1232.3L295.959,1232.3c-6.574,0.01-11.846,3.727-15.811,8.656
			c-0.96-0.16-1.872-0.656-2.845-0.656c-11.686,0-21.312,9.656-21.312,21.344c0.002,0.961,0.528,1.828,0.656,2.781
			c-4.936,3.971-8.654,9.258-8.656,15.844c0.01,6.574,3.728,11.848,8.656,15.813c-0.16,0.977-0.656,1.861-0.656,2.846
			c0,11.688,9.624,21.313,21.312,21.313c0.976,0,1.874-0.527,2.845-0.656c3.971,4.934,9.259,8.654,15.843,8.656
			c6.576-0.008,11.846-3.727,15.813-8.656c0.976,0.16,1.854,0.656,2.843,0.656c11.688,0,21.344-9.658,21.344-21.344
			c-0.002-0.977-0.528-1.854-0.656-2.813c4.933-3.971,8.654-9.26,8.656-15.844c-0.01-6.578-3.725-11.877-8.656-15.844
			c0.16-0.961,0.656-1.836,0.656-2.813c0-11.686-9.658-21.344-21.344-21.344c-0.992,0-1.845,0.512-2.813,0.656
			c-3.971-4.934-9.259-8.656-15.843-8.656L295.959,1232.3z"/>
		<path style="fill:#FFB900;" d="M295.959,1248.363c2.373,0,4.395,1.52,5.094,3.781c1.304,4.223,5.784,6.588,10.006,5.283
			c0.406-0.125,0.801-0.283,1.181-0.471c0.784-0.385,1.603-0.592,2.376-0.592c3.042,0,5.342,2.303,5.342,5.344
			c0.002,0.832-0.192,1.631-0.56,2.375c-1.972,3.955-0.364,8.758,3.59,10.73c0.393,0.195,0.802,0.359,1.223,0.488
			c2.264,0.703,3.747,2.725,3.75,5.094c-0.013,2.359-1.52,4.367-3.781,5.063c-4.22,1.311-6.577,5.795-5.266,10.016
			c0.128,0.412,0.29,0.814,0.483,1.201c0.368,0.721,0.56,1.535,0.56,2.344c0,3.041-2.302,5.344-5.342,5.344
			c-0.816,0-1.651-0.191-2.406-0.561c-3.962-1.957-8.76-0.33-10.717,3.631c-0.188,0.381-0.345,0.775-0.471,1.182
			c-0.704,2.256-2.707,3.736-5.064,3.75c-2.373,0-4.394-1.488-5.093-3.75c-1.304-4.223-5.784-6.588-10.006-5.283
			c-0.428,0.133-0.844,0.301-1.244,0.502c-0.72,0.367-1.536,0.527-2.344,0.527c-3.04,0-5.314-2.27-5.314-5.313
			c0-0.832,0.192-1.633,0.56-2.377c1.957-3.961,0.332-8.76-3.63-10.717c-0.381-0.188-0.776-0.346-1.181-0.471
			c-2.266-0.703-3.747-2.723-3.75-5.094c0-2.375,1.472-4.395,3.75-5.094c4.224-1.297,6.597-5.773,5.3-9.998
			c-0.129-0.42-0.292-0.828-0.488-1.221c-0.368-0.736-0.56-1.553-0.56-2.375c0.014-3.029,2.28-5.313,5.314-5.313
			c0.848,0,1.643,0.207,2.344,0.561c3.955,1.971,8.759,0.363,10.73-3.592c0.196-0.393,0.359-0.801,0.488-1.221
			c0.704-2.264,2.726-3.746,5.094-3.748L295.959,1248.363z"/>
	</g>
	<path style="fill:#464C63;" d="M287.988,1280.365c0,4.418,3.582,8,8,8s8-3.582,8-8s-3.582-8-8-8S287.988,1275.947,287.988,1280.365
		z"/>
</g>
</svg>